<mxfile host="app.diagrams.net" modified="2024-02-23T10:35:54.573Z" agent="Mozilla/5.0 (Macintosh; Intel Mac OS X 10_15_7) AppleWebKit/537.36 (KHTML, like Gecko) Chrome/121.0.0.0 Safari/537.36" etag="f4pzGAjGjBG8QSdbSuq0" version="23.1.5" type="github">
  <diagram id="C5RBs43oDa-KdzZeNtuy" name="Page-1">
    <mxGraphModel dx="1404" dy="2026" grid="1" gridSize="10" guides="1" tooltips="1" connect="1" arrows="1" fold="1" page="1" pageScale="1" pageWidth="827" pageHeight="1169" math="0" shadow="0">
      <root>
        <mxCell id="WIyWlLk6GJQsqaUBKTNV-0" />
        <mxCell id="WIyWlLk6GJQsqaUBKTNV-1" parent="WIyWlLk6GJQsqaUBKTNV-0" />
        <mxCell id="ApN2YI6DK6Mzw7adcPMo-0" value="Start" style="strokeWidth=2;html=1;shape=mxgraph.flowchart.terminator;whiteSpace=wrap;" vertex="1" parent="WIyWlLk6GJQsqaUBKTNV-1">
          <mxGeometry x="329" y="-900" width="100" height="40" as="geometry" />
        </mxCell>
        <mxCell id="ApN2YI6DK6Mzw7adcPMo-1" value="" style="endArrow=classic;html=1;rounded=0;exitX=0.5;exitY=1;exitDx=0;exitDy=0;exitPerimeter=0;" edge="1" parent="WIyWlLk6GJQsqaUBKTNV-1" source="ApN2YI6DK6Mzw7adcPMo-0">
          <mxGeometry width="50" height="50" relative="1" as="geometry">
            <mxPoint x="395" y="-640" as="sourcePoint" />
            <mxPoint x="379" y="-800" as="targetPoint" />
          </mxGeometry>
        </mxCell>
        <mxCell id="ApN2YI6DK6Mzw7adcPMo-2" value="Authorised User&lt;br&gt;(Patient)" style="rounded=0;whiteSpace=wrap;html=1;" vertex="1" parent="WIyWlLk6GJQsqaUBKTNV-1">
          <mxGeometry x="319" y="-820" width="120" height="50" as="geometry" />
        </mxCell>
        <mxCell id="ApN2YI6DK6Mzw7adcPMo-9" value="" style="edgeStyle=orthogonalEdgeStyle;rounded=0;orthogonalLoop=1;jettySize=auto;html=1;" edge="1" parent="WIyWlLk6GJQsqaUBKTNV-1" source="ApN2YI6DK6Mzw7adcPMo-3">
          <mxGeometry relative="1" as="geometry">
            <mxPoint x="379" y="-600" as="targetPoint" />
          </mxGeometry>
        </mxCell>
        <mxCell id="ApN2YI6DK6Mzw7adcPMo-31" value="yes" style="edgeLabel;html=1;align=center;verticalAlign=middle;resizable=0;points=[];" vertex="1" connectable="0" parent="ApN2YI6DK6Mzw7adcPMo-9">
          <mxGeometry x="-0.1684" y="-2" relative="1" as="geometry">
            <mxPoint as="offset" />
          </mxGeometry>
        </mxCell>
        <mxCell id="ApN2YI6DK6Mzw7adcPMo-3" value="Login" style="rhombus;whiteSpace=wrap;html=1;" vertex="1" parent="WIyWlLk6GJQsqaUBKTNV-1">
          <mxGeometry x="339" y="-730" width="80" height="80" as="geometry" />
        </mxCell>
        <mxCell id="ApN2YI6DK6Mzw7adcPMo-4" value="" style="endArrow=classic;html=1;rounded=0;exitX=0.5;exitY=1;exitDx=0;exitDy=0;entryX=0.5;entryY=0;entryDx=0;entryDy=0;" edge="1" parent="WIyWlLk6GJQsqaUBKTNV-1" source="ApN2YI6DK6Mzw7adcPMo-2" target="ApN2YI6DK6Mzw7adcPMo-3">
          <mxGeometry width="50" height="50" relative="1" as="geometry">
            <mxPoint x="395" y="-640" as="sourcePoint" />
            <mxPoint x="445" y="-690" as="targetPoint" />
          </mxGeometry>
        </mxCell>
        <mxCell id="ApN2YI6DK6Mzw7adcPMo-12" value="" style="edgeStyle=orthogonalEdgeStyle;rounded=0;orthogonalLoop=1;jettySize=auto;html=1;" edge="1" parent="WIyWlLk6GJQsqaUBKTNV-1" source="ApN2YI6DK6Mzw7adcPMo-10" target="ApN2YI6DK6Mzw7adcPMo-11">
          <mxGeometry relative="1" as="geometry" />
        </mxCell>
        <mxCell id="ApN2YI6DK6Mzw7adcPMo-10" value="Access Website and appointment" style="rounded=1;whiteSpace=wrap;html=1;" vertex="1" parent="WIyWlLk6GJQsqaUBKTNV-1">
          <mxGeometry x="319" y="-600" width="120" height="50" as="geometry" />
        </mxCell>
        <mxCell id="ApN2YI6DK6Mzw7adcPMo-14" value="" style="edgeStyle=orthogonalEdgeStyle;rounded=0;orthogonalLoop=1;jettySize=auto;html=1;" edge="1" parent="WIyWlLk6GJQsqaUBKTNV-1" source="ApN2YI6DK6Mzw7adcPMo-11" target="ApN2YI6DK6Mzw7adcPMo-13">
          <mxGeometry relative="1" as="geometry" />
        </mxCell>
        <mxCell id="ApN2YI6DK6Mzw7adcPMo-19" value="" style="edgeStyle=orthogonalEdgeStyle;rounded=0;orthogonalLoop=1;jettySize=auto;html=1;" edge="1" parent="WIyWlLk6GJQsqaUBKTNV-1" source="ApN2YI6DK6Mzw7adcPMo-11" target="ApN2YI6DK6Mzw7adcPMo-17">
          <mxGeometry relative="1" as="geometry">
            <mxPoint x="15" y="-500" as="targetPoint" />
            <Array as="points">
              <mxPoint x="80" y="-500" />
            </Array>
          </mxGeometry>
        </mxCell>
        <mxCell id="ApN2YI6DK6Mzw7adcPMo-11" value="Update Profile" style="whiteSpace=wrap;html=1;rounded=1;" vertex="1" parent="WIyWlLk6GJQsqaUBKTNV-1">
          <mxGeometry x="319" y="-520" width="120" height="40" as="geometry" />
        </mxCell>
        <mxCell id="ApN2YI6DK6Mzw7adcPMo-13" value="Make / update appointment" style="whiteSpace=wrap;html=1;rounded=1;" vertex="1" parent="WIyWlLk6GJQsqaUBKTNV-1">
          <mxGeometry x="319" y="-425" width="120" height="45" as="geometry" />
        </mxCell>
        <mxCell id="ApN2YI6DK6Mzw7adcPMo-17" value="Data Storage" style="shape=cylinder3;whiteSpace=wrap;html=1;boundedLbl=1;backgroundOutline=1;size=15;" vertex="1" parent="WIyWlLk6GJQsqaUBKTNV-1">
          <mxGeometry x="105" y="-410" width="90" height="110" as="geometry" />
        </mxCell>
        <mxCell id="ApN2YI6DK6Mzw7adcPMo-24" value="" style="endArrow=classic;html=1;rounded=0;entryX=0.5;entryY=0;entryDx=0;entryDy=0;" edge="1" parent="WIyWlLk6GJQsqaUBKTNV-1" target="ApN2YI6DK6Mzw7adcPMo-25">
          <mxGeometry width="50" height="50" relative="1" as="geometry">
            <mxPoint x="440" y="-570" as="sourcePoint" />
            <mxPoint x="565" y="-430" as="targetPoint" />
            <Array as="points">
              <mxPoint x="565" y="-570" />
            </Array>
          </mxGeometry>
        </mxCell>
        <mxCell id="ApN2YI6DK6Mzw7adcPMo-25" value="View / update&amp;nbsp; Ppersonal Details" style="whiteSpace=wrap;html=1;rounded=1;" vertex="1" parent="WIyWlLk6GJQsqaUBKTNV-1">
          <mxGeometry x="505" y="-440" width="120" height="60" as="geometry" />
        </mxCell>
        <mxCell id="ApN2YI6DK6Mzw7adcPMo-28" value="" style="endArrow=classic;html=1;rounded=0;entryX=0.5;entryY=0;entryDx=0;entryDy=0;" edge="1" parent="WIyWlLk6GJQsqaUBKTNV-1" target="ApN2YI6DK6Mzw7adcPMo-30">
          <mxGeometry width="50" height="50" relative="1" as="geometry">
            <mxPoint x="565" y="-570" as="sourcePoint" />
            <mxPoint x="725" y="-420" as="targetPoint" />
            <Array as="points">
              <mxPoint x="730" y="-570" />
            </Array>
          </mxGeometry>
        </mxCell>
        <mxCell id="ApN2YI6DK6Mzw7adcPMo-30" value="View / update Appointments&lt;br&gt;prescription and reports" style="whiteSpace=wrap;html=1;rounded=1;" vertex="1" parent="WIyWlLk6GJQsqaUBKTNV-1">
          <mxGeometry x="665" y="-450" width="120" height="70" as="geometry" />
        </mxCell>
        <mxCell id="ApN2YI6DK6Mzw7adcPMo-34" value="sign Up" style="rhombus;whiteSpace=wrap;html=1;" vertex="1" parent="WIyWlLk6GJQsqaUBKTNV-1">
          <mxGeometry x="585" y="-790" width="80" height="80" as="geometry" />
        </mxCell>
        <mxCell id="ApN2YI6DK6Mzw7adcPMo-61" value="Start" style="strokeWidth=2;html=1;shape=mxgraph.flowchart.terminator;whiteSpace=wrap;" vertex="1" parent="WIyWlLk6GJQsqaUBKTNV-1">
          <mxGeometry x="310" y="130" width="100" height="40" as="geometry" />
        </mxCell>
        <mxCell id="ApN2YI6DK6Mzw7adcPMo-62" value="" style="endArrow=classic;html=1;rounded=0;exitX=0.5;exitY=1;exitDx=0;exitDy=0;exitPerimeter=0;" edge="1" parent="WIyWlLk6GJQsqaUBKTNV-1" source="ApN2YI6DK6Mzw7adcPMo-61">
          <mxGeometry width="50" height="50" relative="1" as="geometry">
            <mxPoint x="376" y="390" as="sourcePoint" />
            <mxPoint x="360" y="230" as="targetPoint" />
          </mxGeometry>
        </mxCell>
        <mxCell id="ApN2YI6DK6Mzw7adcPMo-63" value="Authorised User&lt;br&gt;(Doctor)" style="rounded=0;whiteSpace=wrap;html=1;" vertex="1" parent="WIyWlLk6GJQsqaUBKTNV-1">
          <mxGeometry x="300" y="210" width="120" height="50" as="geometry" />
        </mxCell>
        <mxCell id="ApN2YI6DK6Mzw7adcPMo-64" value="" style="edgeStyle=orthogonalEdgeStyle;rounded=0;orthogonalLoop=1;jettySize=auto;html=1;" edge="1" parent="WIyWlLk6GJQsqaUBKTNV-1" source="ApN2YI6DK6Mzw7adcPMo-67">
          <mxGeometry relative="1" as="geometry">
            <mxPoint x="360" y="430" as="targetPoint" />
          </mxGeometry>
        </mxCell>
        <mxCell id="ApN2YI6DK6Mzw7adcPMo-65" value="yes" style="edgeLabel;html=1;align=center;verticalAlign=middle;resizable=0;points=[];" vertex="1" connectable="0" parent="ApN2YI6DK6Mzw7adcPMo-64">
          <mxGeometry x="-0.1684" y="-2" relative="1" as="geometry">
            <mxPoint as="offset" />
          </mxGeometry>
        </mxCell>
        <mxCell id="ApN2YI6DK6Mzw7adcPMo-67" value="Login" style="rhombus;whiteSpace=wrap;html=1;" vertex="1" parent="WIyWlLk6GJQsqaUBKTNV-1">
          <mxGeometry x="320" y="300" width="80" height="80" as="geometry" />
        </mxCell>
        <mxCell id="ApN2YI6DK6Mzw7adcPMo-68" value="" style="endArrow=classic;html=1;rounded=0;exitX=0.5;exitY=1;exitDx=0;exitDy=0;entryX=0.5;entryY=0;entryDx=0;entryDy=0;" edge="1" parent="WIyWlLk6GJQsqaUBKTNV-1" source="ApN2YI6DK6Mzw7adcPMo-63" target="ApN2YI6DK6Mzw7adcPMo-67">
          <mxGeometry width="50" height="50" relative="1" as="geometry">
            <mxPoint x="376" y="390" as="sourcePoint" />
            <mxPoint x="426" y="340" as="targetPoint" />
          </mxGeometry>
        </mxCell>
        <mxCell id="ApN2YI6DK6Mzw7adcPMo-71" value="" style="edgeStyle=orthogonalEdgeStyle;rounded=0;orthogonalLoop=1;jettySize=auto;html=1;" edge="1" parent="WIyWlLk6GJQsqaUBKTNV-1" source="ApN2YI6DK6Mzw7adcPMo-72" target="ApN2YI6DK6Mzw7adcPMo-75">
          <mxGeometry relative="1" as="geometry" />
        </mxCell>
        <mxCell id="ApN2YI6DK6Mzw7adcPMo-72" value="Access Website" style="rounded=1;whiteSpace=wrap;html=1;" vertex="1" parent="WIyWlLk6GJQsqaUBKTNV-1">
          <mxGeometry x="300" y="430" width="120" height="40" as="geometry" />
        </mxCell>
        <mxCell id="ApN2YI6DK6Mzw7adcPMo-75" value="View / Update Profile" style="whiteSpace=wrap;html=1;rounded=1;" vertex="1" parent="WIyWlLk6GJQsqaUBKTNV-1">
          <mxGeometry x="65" y="440" width="120" height="40" as="geometry" />
        </mxCell>
        <mxCell id="ApN2YI6DK6Mzw7adcPMo-78" value="Data Storage" style="shape=cylinder3;whiteSpace=wrap;html=1;boundedLbl=1;backgroundOutline=1;size=15;" vertex="1" parent="WIyWlLk6GJQsqaUBKTNV-1">
          <mxGeometry x="86" y="620" width="90" height="110" as="geometry" />
        </mxCell>
        <mxCell id="ApN2YI6DK6Mzw7adcPMo-80" value="" style="endArrow=classic;html=1;rounded=0;entryX=0.5;entryY=0;entryDx=0;entryDy=0;exitX=0;exitY=1;exitDx=0;exitDy=0;" edge="1" parent="WIyWlLk6GJQsqaUBKTNV-1" source="ApN2YI6DK6Mzw7adcPMo-72" target="ApN2YI6DK6Mzw7adcPMo-81">
          <mxGeometry width="50" height="50" relative="1" as="geometry">
            <mxPoint x="426" y="530" as="sourcePoint" />
            <mxPoint x="546" y="600" as="targetPoint" />
            <Array as="points">
              <mxPoint x="230" y="500" />
            </Array>
          </mxGeometry>
        </mxCell>
        <mxCell id="ApN2YI6DK6Mzw7adcPMo-81" value="View / update&amp;nbsp; professional Details" style="whiteSpace=wrap;html=1;rounded=1;" vertex="1" parent="WIyWlLk6GJQsqaUBKTNV-1">
          <mxGeometry x="160" y="540" width="120" height="40" as="geometry" />
        </mxCell>
        <mxCell id="ApN2YI6DK6Mzw7adcPMo-82" value="" style="endArrow=classic;html=1;rounded=0;exitX=0.667;exitY=1.075;exitDx=0;exitDy=0;entryX=0.5;entryY=0;entryDx=0;entryDy=0;exitPerimeter=0;" edge="1" parent="WIyWlLk6GJQsqaUBKTNV-1" source="ApN2YI6DK6Mzw7adcPMo-72" target="ApN2YI6DK6Mzw7adcPMo-84">
          <mxGeometry width="50" height="50" relative="1" as="geometry">
            <mxPoint x="546" y="450" as="sourcePoint" />
            <mxPoint x="560" y="600" as="targetPoint" />
            <Array as="points">
              <mxPoint x="390" y="510" />
            </Array>
          </mxGeometry>
        </mxCell>
        <mxCell id="ApN2YI6DK6Mzw7adcPMo-88" value="" style="edgeStyle=orthogonalEdgeStyle;rounded=0;orthogonalLoop=1;jettySize=auto;html=1;" edge="1" parent="WIyWlLk6GJQsqaUBKTNV-1" source="ApN2YI6DK6Mzw7adcPMo-84" target="ApN2YI6DK6Mzw7adcPMo-87">
          <mxGeometry relative="1" as="geometry" />
        </mxCell>
        <mxCell id="ApN2YI6DK6Mzw7adcPMo-84" value="View / update Patient&amp;nbsp; Appointments" style="whiteSpace=wrap;html=1;rounded=1;" vertex="1" parent="WIyWlLk6GJQsqaUBKTNV-1">
          <mxGeometry x="330" y="600" width="176" height="50" as="geometry" />
        </mxCell>
        <mxCell id="ApN2YI6DK6Mzw7adcPMo-87" value="add / update diagnosis, prescription &amp;amp; reports" style="whiteSpace=wrap;html=1;rounded=1;" vertex="1" parent="WIyWlLk6GJQsqaUBKTNV-1">
          <mxGeometry x="586" y="600" width="134" height="60" as="geometry" />
        </mxCell>
        <mxCell id="ApN2YI6DK6Mzw7adcPMo-91" value="LImited Access" style="rounded=1;whiteSpace=wrap;html=1;" vertex="1" parent="WIyWlLk6GJQsqaUBKTNV-1">
          <mxGeometry x="465" y="-710" width="120" height="40" as="geometry" />
        </mxCell>
        <mxCell id="ApN2YI6DK6Mzw7adcPMo-92" value="" style="endArrow=classic;html=1;rounded=0;entryX=0;entryY=0.5;entryDx=0;entryDy=0;exitX=1;exitY=0.5;exitDx=0;exitDy=0;" edge="1" parent="WIyWlLk6GJQsqaUBKTNV-1" source="ApN2YI6DK6Mzw7adcPMo-3" target="ApN2YI6DK6Mzw7adcPMo-91">
          <mxGeometry width="50" height="50" relative="1" as="geometry">
            <mxPoint x="350" y="-580" as="sourcePoint" />
            <mxPoint x="400" y="-630" as="targetPoint" />
          </mxGeometry>
        </mxCell>
        <mxCell id="ApN2YI6DK6Mzw7adcPMo-93" value="" style="endArrow=classic;html=1;rounded=0;entryX=0.5;entryY=1;entryDx=0;entryDy=0;exitX=1;exitY=0.5;exitDx=0;exitDy=0;" edge="1" parent="WIyWlLk6GJQsqaUBKTNV-1" source="ApN2YI6DK6Mzw7adcPMo-91" target="ApN2YI6DK6Mzw7adcPMo-34">
          <mxGeometry width="50" height="50" relative="1" as="geometry">
            <mxPoint x="350" y="-580" as="sourcePoint" />
            <mxPoint x="400" y="-630" as="targetPoint" />
            <Array as="points">
              <mxPoint x="625" y="-690" />
            </Array>
          </mxGeometry>
        </mxCell>
        <mxCell id="ApN2YI6DK6Mzw7adcPMo-94" value="" style="endArrow=classic;html=1;rounded=0;exitX=0;exitY=0.5;exitDx=0;exitDy=0;" edge="1" parent="WIyWlLk6GJQsqaUBKTNV-1" source="ApN2YI6DK6Mzw7adcPMo-34">
          <mxGeometry width="50" height="50" relative="1" as="geometry">
            <mxPoint x="350" y="-580" as="sourcePoint" />
            <mxPoint x="380" y="-750" as="targetPoint" />
            <Array as="points">
              <mxPoint x="490" y="-750" />
            </Array>
          </mxGeometry>
        </mxCell>
        <mxCell id="ApN2YI6DK6Mzw7adcPMo-95" value="sign Up" style="rhombus;whiteSpace=wrap;html=1;" vertex="1" parent="WIyWlLk6GJQsqaUBKTNV-1">
          <mxGeometry x="560" y="240" width="80" height="80" as="geometry" />
        </mxCell>
        <mxCell id="ApN2YI6DK6Mzw7adcPMo-96" value="LImited Access" style="rounded=1;whiteSpace=wrap;html=1;" vertex="1" parent="WIyWlLk6GJQsqaUBKTNV-1">
          <mxGeometry x="440" y="320" width="120" height="40" as="geometry" />
        </mxCell>
        <mxCell id="ApN2YI6DK6Mzw7adcPMo-97" value="" style="endArrow=classic;html=1;rounded=0;entryX=0.5;entryY=1;entryDx=0;entryDy=0;exitX=1;exitY=0.5;exitDx=0;exitDy=0;" edge="1" source="ApN2YI6DK6Mzw7adcPMo-96" target="ApN2YI6DK6Mzw7adcPMo-95" parent="WIyWlLk6GJQsqaUBKTNV-1">
          <mxGeometry width="50" height="50" relative="1" as="geometry">
            <mxPoint x="325" y="450" as="sourcePoint" />
            <mxPoint x="375" y="400" as="targetPoint" />
            <Array as="points">
              <mxPoint x="600" y="340" />
            </Array>
          </mxGeometry>
        </mxCell>
        <mxCell id="ApN2YI6DK6Mzw7adcPMo-98" value="" style="endArrow=classic;html=1;rounded=0;exitX=0;exitY=0.5;exitDx=0;exitDy=0;" edge="1" parent="WIyWlLk6GJQsqaUBKTNV-1">
          <mxGeometry width="50" height="50" relative="1" as="geometry">
            <mxPoint x="560" y="280" as="sourcePoint" />
            <mxPoint x="360" y="280" as="targetPoint" />
            <Array as="points">
              <mxPoint x="465" y="280" />
            </Array>
          </mxGeometry>
        </mxCell>
        <mxCell id="ApN2YI6DK6Mzw7adcPMo-99" value="" style="endArrow=classic;html=1;rounded=0;entryX=0;entryY=0.5;entryDx=0;entryDy=0;exitX=1;exitY=0.5;exitDx=0;exitDy=0;" edge="1" parent="WIyWlLk6GJQsqaUBKTNV-1">
          <mxGeometry width="50" height="50" relative="1" as="geometry">
            <mxPoint x="394" y="340" as="sourcePoint" />
            <mxPoint x="440" y="340" as="targetPoint" />
          </mxGeometry>
        </mxCell>
        <mxCell id="ApN2YI6DK6Mzw7adcPMo-129" value="" style="endArrow=classic;startArrow=classic;html=1;rounded=0;exitX=1;exitY=0.5;exitDx=0;exitDy=0;exitPerimeter=0;entryX=0.5;entryY=1;entryDx=0;entryDy=0;" edge="1" parent="WIyWlLk6GJQsqaUBKTNV-1" source="ApN2YI6DK6Mzw7adcPMo-17" target="ApN2YI6DK6Mzw7adcPMo-25">
          <mxGeometry width="50" height="50" relative="1" as="geometry">
            <mxPoint x="370" y="-360" as="sourcePoint" />
            <mxPoint x="650" y="-355" as="targetPoint" />
            <Array as="points">
              <mxPoint x="500" y="-355" />
            </Array>
          </mxGeometry>
        </mxCell>
        <mxCell id="ApN2YI6DK6Mzw7adcPMo-130" value="Log Out" style="rhombus;whiteSpace=wrap;html=1;" vertex="1" parent="WIyWlLk6GJQsqaUBKTNV-1">
          <mxGeometry x="520" y="-260" width="80" height="80" as="geometry" />
        </mxCell>
        <mxCell id="ApN2YI6DK6Mzw7adcPMo-131" value="" style="endArrow=classic;startArrow=classic;html=1;rounded=0;entryX=0;entryY=0.5;entryDx=0;entryDy=0;" edge="1" parent="WIyWlLk6GJQsqaUBKTNV-1" target="ApN2YI6DK6Mzw7adcPMo-13">
          <mxGeometry width="50" height="50" relative="1" as="geometry">
            <mxPoint x="195" y="-385" as="sourcePoint" />
            <mxPoint x="245" y="-435" as="targetPoint" />
          </mxGeometry>
        </mxCell>
        <mxCell id="ApN2YI6DK6Mzw7adcPMo-132" value="" style="endArrow=classic;startArrow=classic;html=1;rounded=0;exitX=1;exitY=0;exitDx=0;exitDy=75;exitPerimeter=0;entryX=0.5;entryY=1;entryDx=0;entryDy=0;" edge="1" parent="WIyWlLk6GJQsqaUBKTNV-1" source="ApN2YI6DK6Mzw7adcPMo-17" target="ApN2YI6DK6Mzw7adcPMo-30">
          <mxGeometry width="50" height="50" relative="1" as="geometry">
            <mxPoint x="370" y="-220" as="sourcePoint" />
            <mxPoint x="780" y="-330" as="targetPoint" />
            <Array as="points">
              <mxPoint x="740" y="-330" />
            </Array>
          </mxGeometry>
        </mxCell>
        <mxCell id="ApN2YI6DK6Mzw7adcPMo-133" value="" style="endArrow=classic;html=1;rounded=0;entryX=0;entryY=0.5;entryDx=0;entryDy=0;exitX=0.25;exitY=1;exitDx=0;exitDy=0;" edge="1" parent="WIyWlLk6GJQsqaUBKTNV-1" source="ApN2YI6DK6Mzw7adcPMo-13" target="ApN2YI6DK6Mzw7adcPMo-130">
          <mxGeometry width="50" height="50" relative="1" as="geometry">
            <mxPoint x="370" y="-220" as="sourcePoint" />
            <mxPoint x="510" y="-240" as="targetPoint" />
            <Array as="points">
              <mxPoint x="350" y="-220" />
            </Array>
          </mxGeometry>
        </mxCell>
        <mxCell id="ApN2YI6DK6Mzw7adcPMo-134" value="" style="endArrow=classic;html=1;rounded=0;entryX=0.5;entryY=0;entryDx=0;entryDy=0;exitX=0.75;exitY=1;exitDx=0;exitDy=0;" edge="1" parent="WIyWlLk6GJQsqaUBKTNV-1" source="ApN2YI6DK6Mzw7adcPMo-25" target="ApN2YI6DK6Mzw7adcPMo-130">
          <mxGeometry width="50" height="50" relative="1" as="geometry">
            <mxPoint x="370" y="-220" as="sourcePoint" />
            <mxPoint x="420" y="-270" as="targetPoint" />
          </mxGeometry>
        </mxCell>
        <mxCell id="ApN2YI6DK6Mzw7adcPMo-135" value="" style="endArrow=classic;html=1;rounded=0;entryX=1;entryY=0.5;entryDx=0;entryDy=0;exitX=0.25;exitY=1;exitDx=0;exitDy=0;" edge="1" parent="WIyWlLk6GJQsqaUBKTNV-1" source="ApN2YI6DK6Mzw7adcPMo-30" target="ApN2YI6DK6Mzw7adcPMo-130">
          <mxGeometry width="50" height="50" relative="1" as="geometry">
            <mxPoint x="380" y="-220" as="sourcePoint" />
            <mxPoint x="430" y="-270" as="targetPoint" />
          </mxGeometry>
        </mxCell>
        <mxCell id="ApN2YI6DK6Mzw7adcPMo-136" value="End" style="strokeWidth=2;html=1;shape=mxgraph.flowchart.terminator;whiteSpace=wrap;" vertex="1" parent="WIyWlLk6GJQsqaUBKTNV-1">
          <mxGeometry x="511" y="-140" width="100" height="40" as="geometry" />
        </mxCell>
        <mxCell id="ApN2YI6DK6Mzw7adcPMo-137" value="" style="endArrow=classic;html=1;rounded=0;entryX=0.5;entryY=0;entryDx=0;entryDy=0;entryPerimeter=0;exitX=0.5;exitY=1;exitDx=0;exitDy=0;" edge="1" parent="WIyWlLk6GJQsqaUBKTNV-1" source="ApN2YI6DK6Mzw7adcPMo-130" target="ApN2YI6DK6Mzw7adcPMo-136">
          <mxGeometry width="50" height="50" relative="1" as="geometry">
            <mxPoint x="380" y="-290" as="sourcePoint" />
            <mxPoint x="430" y="-340" as="targetPoint" />
          </mxGeometry>
        </mxCell>
        <mxCell id="ApN2YI6DK6Mzw7adcPMo-138" value="Log Out" style="rhombus;whiteSpace=wrap;html=1;" vertex="1" parent="WIyWlLk6GJQsqaUBKTNV-1">
          <mxGeometry x="329" y="810" width="80" height="80" as="geometry" />
        </mxCell>
        <mxCell id="ApN2YI6DK6Mzw7adcPMo-139" value="End" style="strokeWidth=2;html=1;shape=mxgraph.flowchart.terminator;whiteSpace=wrap;" vertex="1" parent="WIyWlLk6GJQsqaUBKTNV-1">
          <mxGeometry x="320" y="930" width="100" height="40" as="geometry" />
        </mxCell>
        <mxCell id="ApN2YI6DK6Mzw7adcPMo-140" value="" style="endArrow=classic;html=1;rounded=0;entryX=0.5;entryY=0;entryDx=0;entryDy=0;entryPerimeter=0;exitX=0.5;exitY=1;exitDx=0;exitDy=0;" edge="1" source="ApN2YI6DK6Mzw7adcPMo-138" target="ApN2YI6DK6Mzw7adcPMo-139" parent="WIyWlLk6GJQsqaUBKTNV-1">
          <mxGeometry width="50" height="50" relative="1" as="geometry">
            <mxPoint x="189" y="780" as="sourcePoint" />
            <mxPoint x="239" y="730" as="targetPoint" />
          </mxGeometry>
        </mxCell>
        <mxCell id="ApN2YI6DK6Mzw7adcPMo-141" value="" style="endArrow=classic;startArrow=classic;html=1;rounded=0;exitX=1;exitY=0.5;exitDx=0;exitDy=0;exitPerimeter=0;entryX=0.5;entryY=1;entryDx=0;entryDy=0;" edge="1" parent="WIyWlLk6GJQsqaUBKTNV-1" source="ApN2YI6DK6Mzw7adcPMo-78" target="ApN2YI6DK6Mzw7adcPMo-81">
          <mxGeometry width="50" height="50" relative="1" as="geometry">
            <mxPoint x="370" y="540" as="sourcePoint" />
            <mxPoint x="190" y="590" as="targetPoint" />
            <Array as="points">
              <mxPoint x="200" y="670" />
            </Array>
          </mxGeometry>
        </mxCell>
        <mxCell id="ApN2YI6DK6Mzw7adcPMo-142" value="" style="endArrow=classic;startArrow=classic;html=1;rounded=0;exitX=1;exitY=0;exitDx=0;exitDy=75;exitPerimeter=0;entryX=0.442;entryY=1.1;entryDx=0;entryDy=0;entryPerimeter=0;" edge="1" parent="WIyWlLk6GJQsqaUBKTNV-1" source="ApN2YI6DK6Mzw7adcPMo-78" target="ApN2YI6DK6Mzw7adcPMo-84">
          <mxGeometry width="50" height="50" relative="1" as="geometry">
            <mxPoint x="370" y="750" as="sourcePoint" />
            <mxPoint x="530" y="690" as="targetPoint" />
            <Array as="points">
              <mxPoint x="400" y="680" />
            </Array>
          </mxGeometry>
        </mxCell>
        <mxCell id="ApN2YI6DK6Mzw7adcPMo-143" value="" style="endArrow=classic;startArrow=classic;html=1;rounded=0;exitX=1;exitY=1;exitDx=0;exitDy=-15;exitPerimeter=0;entryX=0.25;entryY=1;entryDx=0;entryDy=0;" edge="1" parent="WIyWlLk6GJQsqaUBKTNV-1" source="ApN2YI6DK6Mzw7adcPMo-78" target="ApN2YI6DK6Mzw7adcPMo-87">
          <mxGeometry width="50" height="50" relative="1" as="geometry">
            <mxPoint x="370" y="750" as="sourcePoint" />
            <mxPoint x="730" y="720" as="targetPoint" />
            <Array as="points">
              <mxPoint x="616" y="715" />
            </Array>
          </mxGeometry>
        </mxCell>
        <mxCell id="ApN2YI6DK6Mzw7adcPMo-144" value="" style="endArrow=classic;startArrow=classic;html=1;rounded=0;entryX=0.5;entryY=1;entryDx=0;entryDy=0;exitX=0.5;exitY=0;exitDx=0;exitDy=0;exitPerimeter=0;" edge="1" parent="WIyWlLk6GJQsqaUBKTNV-1" source="ApN2YI6DK6Mzw7adcPMo-78" target="ApN2YI6DK6Mzw7adcPMo-75">
          <mxGeometry width="50" height="50" relative="1" as="geometry">
            <mxPoint x="250" y="710" as="sourcePoint" />
            <mxPoint x="300" y="660" as="targetPoint" />
          </mxGeometry>
        </mxCell>
        <mxCell id="ApN2YI6DK6Mzw7adcPMo-145" value="" style="endArrow=classic;html=1;rounded=0;exitX=0.25;exitY=1;exitDx=0;exitDy=0;entryX=0;entryY=0.5;entryDx=0;entryDy=0;" edge="1" parent="WIyWlLk6GJQsqaUBKTNV-1" source="ApN2YI6DK6Mzw7adcPMo-75" target="ApN2YI6DK6Mzw7adcPMo-138">
          <mxGeometry width="50" height="50" relative="1" as="geometry">
            <mxPoint x="250" y="700" as="sourcePoint" />
            <mxPoint x="300" y="650" as="targetPoint" />
            <Array as="points">
              <mxPoint x="50" y="560" />
              <mxPoint x="50" y="850" />
            </Array>
          </mxGeometry>
        </mxCell>
        <mxCell id="ApN2YI6DK6Mzw7adcPMo-146" value="" style="endArrow=classic;html=1;rounded=0;exitX=0.75;exitY=1;exitDx=0;exitDy=0;" edge="1" parent="WIyWlLk6GJQsqaUBKTNV-1" source="ApN2YI6DK6Mzw7adcPMo-81" target="ApN2YI6DK6Mzw7adcPMo-138">
          <mxGeometry width="50" height="50" relative="1" as="geometry">
            <mxPoint x="250" y="710" as="sourcePoint" />
            <mxPoint x="300" y="660" as="targetPoint" />
            <Array as="points">
              <mxPoint x="250" y="780" />
            </Array>
          </mxGeometry>
        </mxCell>
        <mxCell id="ApN2YI6DK6Mzw7adcPMo-147" value="" style="endArrow=classic;html=1;rounded=0;entryX=0.5;entryY=0;entryDx=0;entryDy=0;exitX=0.75;exitY=1;exitDx=0;exitDy=0;" edge="1" parent="WIyWlLk6GJQsqaUBKTNV-1" source="ApN2YI6DK6Mzw7adcPMo-84" target="ApN2YI6DK6Mzw7adcPMo-138">
          <mxGeometry width="50" height="50" relative="1" as="geometry">
            <mxPoint x="250" y="710" as="sourcePoint" />
            <mxPoint x="300" y="660" as="targetPoint" />
            <Array as="points">
              <mxPoint x="440" y="770" />
            </Array>
          </mxGeometry>
        </mxCell>
        <mxCell id="ApN2YI6DK6Mzw7adcPMo-148" value="" style="endArrow=classic;html=1;rounded=0;entryX=1;entryY=0.5;entryDx=0;entryDy=0;exitX=0.75;exitY=1;exitDx=0;exitDy=0;" edge="1" parent="WIyWlLk6GJQsqaUBKTNV-1" source="ApN2YI6DK6Mzw7adcPMo-87" target="ApN2YI6DK6Mzw7adcPMo-138">
          <mxGeometry width="50" height="50" relative="1" as="geometry">
            <mxPoint x="250" y="710" as="sourcePoint" />
            <mxPoint x="300" y="660" as="targetPoint" />
            <Array as="points">
              <mxPoint x="687" y="850" />
            </Array>
          </mxGeometry>
        </mxCell>
        <mxCell id="ApN2YI6DK6Mzw7adcPMo-149" value="Start" style="strokeWidth=2;html=1;shape=mxgraph.flowchart.terminator;whiteSpace=wrap;" vertex="1" parent="WIyWlLk6GJQsqaUBKTNV-1">
          <mxGeometry x="339" y="1334" width="100" height="40" as="geometry" />
        </mxCell>
        <mxCell id="ApN2YI6DK6Mzw7adcPMo-150" value="" style="endArrow=classic;html=1;rounded=0;exitX=0.5;exitY=1;exitDx=0;exitDy=0;exitPerimeter=0;" edge="1" source="ApN2YI6DK6Mzw7adcPMo-149" parent="WIyWlLk6GJQsqaUBKTNV-1">
          <mxGeometry width="50" height="50" relative="1" as="geometry">
            <mxPoint x="405" y="1594" as="sourcePoint" />
            <mxPoint x="389" y="1434" as="targetPoint" />
          </mxGeometry>
        </mxCell>
        <mxCell id="ApN2YI6DK6Mzw7adcPMo-151" value="Authorised User&lt;br&gt;(Doctor)" style="rounded=0;whiteSpace=wrap;html=1;" vertex="1" parent="WIyWlLk6GJQsqaUBKTNV-1">
          <mxGeometry x="329" y="1414" width="120" height="50" as="geometry" />
        </mxCell>
        <mxCell id="ApN2YI6DK6Mzw7adcPMo-152" value="" style="edgeStyle=orthogonalEdgeStyle;rounded=0;orthogonalLoop=1;jettySize=auto;html=1;" edge="1" source="ApN2YI6DK6Mzw7adcPMo-154" parent="WIyWlLk6GJQsqaUBKTNV-1">
          <mxGeometry relative="1" as="geometry">
            <mxPoint x="389" y="1634" as="targetPoint" />
          </mxGeometry>
        </mxCell>
        <mxCell id="ApN2YI6DK6Mzw7adcPMo-153" value="yes" style="edgeLabel;html=1;align=center;verticalAlign=middle;resizable=0;points=[];" vertex="1" connectable="0" parent="ApN2YI6DK6Mzw7adcPMo-152">
          <mxGeometry x="-0.1684" y="-2" relative="1" as="geometry">
            <mxPoint as="offset" />
          </mxGeometry>
        </mxCell>
        <mxCell id="ApN2YI6DK6Mzw7adcPMo-154" value="Login" style="rhombus;whiteSpace=wrap;html=1;" vertex="1" parent="WIyWlLk6GJQsqaUBKTNV-1">
          <mxGeometry x="349" y="1504" width="80" height="80" as="geometry" />
        </mxCell>
        <mxCell id="ApN2YI6DK6Mzw7adcPMo-155" value="" style="endArrow=classic;html=1;rounded=0;exitX=0.5;exitY=1;exitDx=0;exitDy=0;entryX=0.5;entryY=0;entryDx=0;entryDy=0;" edge="1" source="ApN2YI6DK6Mzw7adcPMo-151" target="ApN2YI6DK6Mzw7adcPMo-154" parent="WIyWlLk6GJQsqaUBKTNV-1">
          <mxGeometry width="50" height="50" relative="1" as="geometry">
            <mxPoint x="405" y="1594" as="sourcePoint" />
            <mxPoint x="455" y="1544" as="targetPoint" />
          </mxGeometry>
        </mxCell>
        <mxCell id="ApN2YI6DK6Mzw7adcPMo-156" value="" style="edgeStyle=orthogonalEdgeStyle;rounded=0;orthogonalLoop=1;jettySize=auto;html=1;" edge="1" source="ApN2YI6DK6Mzw7adcPMo-157" target="ApN2YI6DK6Mzw7adcPMo-158" parent="WIyWlLk6GJQsqaUBKTNV-1">
          <mxGeometry relative="1" as="geometry" />
        </mxCell>
        <mxCell id="ApN2YI6DK6Mzw7adcPMo-157" value="Access Website" style="rounded=1;whiteSpace=wrap;html=1;" vertex="1" parent="WIyWlLk6GJQsqaUBKTNV-1">
          <mxGeometry x="329" y="1634" width="120" height="40" as="geometry" />
        </mxCell>
        <mxCell id="ApN2YI6DK6Mzw7adcPMo-158" value="View / Update Profile" style="whiteSpace=wrap;html=1;rounded=1;" vertex="1" parent="WIyWlLk6GJQsqaUBKTNV-1">
          <mxGeometry x="94" y="1644" width="120" height="40" as="geometry" />
        </mxCell>
        <mxCell id="ApN2YI6DK6Mzw7adcPMo-159" value="Data Storage" style="shape=cylinder3;whiteSpace=wrap;html=1;boundedLbl=1;backgroundOutline=1;size=15;" vertex="1" parent="WIyWlLk6GJQsqaUBKTNV-1">
          <mxGeometry x="115" y="1824" width="90" height="110" as="geometry" />
        </mxCell>
        <mxCell id="ApN2YI6DK6Mzw7adcPMo-160" value="" style="endArrow=classic;html=1;rounded=0;entryX=0.5;entryY=0;entryDx=0;entryDy=0;exitX=0;exitY=1;exitDx=0;exitDy=0;" edge="1" source="ApN2YI6DK6Mzw7adcPMo-157" target="ApN2YI6DK6Mzw7adcPMo-161" parent="WIyWlLk6GJQsqaUBKTNV-1">
          <mxGeometry width="50" height="50" relative="1" as="geometry">
            <mxPoint x="455" y="1734" as="sourcePoint" />
            <mxPoint x="575" y="1804" as="targetPoint" />
            <Array as="points">
              <mxPoint x="259" y="1704" />
            </Array>
          </mxGeometry>
        </mxCell>
        <mxCell id="ApN2YI6DK6Mzw7adcPMo-161" value="View / update&amp;nbsp; professional Details" style="whiteSpace=wrap;html=1;rounded=1;" vertex="1" parent="WIyWlLk6GJQsqaUBKTNV-1">
          <mxGeometry x="189" y="1744" width="120" height="40" as="geometry" />
        </mxCell>
        <mxCell id="ApN2YI6DK6Mzw7adcPMo-162" value="" style="endArrow=classic;html=1;rounded=0;exitX=0.667;exitY=1.075;exitDx=0;exitDy=0;entryX=0.5;entryY=0;entryDx=0;entryDy=0;exitPerimeter=0;" edge="1" source="ApN2YI6DK6Mzw7adcPMo-157" target="ApN2YI6DK6Mzw7adcPMo-164" parent="WIyWlLk6GJQsqaUBKTNV-1">
          <mxGeometry width="50" height="50" relative="1" as="geometry">
            <mxPoint x="575" y="1654" as="sourcePoint" />
            <mxPoint x="589" y="1804" as="targetPoint" />
            <Array as="points">
              <mxPoint x="419" y="1714" />
            </Array>
          </mxGeometry>
        </mxCell>
        <mxCell id="ApN2YI6DK6Mzw7adcPMo-163" value="" style="edgeStyle=orthogonalEdgeStyle;rounded=0;orthogonalLoop=1;jettySize=auto;html=1;" edge="1" source="ApN2YI6DK6Mzw7adcPMo-164" target="ApN2YI6DK6Mzw7adcPMo-165" parent="WIyWlLk6GJQsqaUBKTNV-1">
          <mxGeometry relative="1" as="geometry" />
        </mxCell>
        <mxCell id="ApN2YI6DK6Mzw7adcPMo-164" value="View / update Patient&amp;nbsp; Appointments" style="whiteSpace=wrap;html=1;rounded=1;" vertex="1" parent="WIyWlLk6GJQsqaUBKTNV-1">
          <mxGeometry x="359" y="1804" width="176" height="50" as="geometry" />
        </mxCell>
        <mxCell id="ApN2YI6DK6Mzw7adcPMo-165" value="add / update diagnosis, prescription &amp;amp; reports" style="whiteSpace=wrap;html=1;rounded=1;" vertex="1" parent="WIyWlLk6GJQsqaUBKTNV-1">
          <mxGeometry x="615" y="1804" width="134" height="60" as="geometry" />
        </mxCell>
        <mxCell id="ApN2YI6DK6Mzw7adcPMo-166" value="sign Up" style="rhombus;whiteSpace=wrap;html=1;" vertex="1" parent="WIyWlLk6GJQsqaUBKTNV-1">
          <mxGeometry x="589" y="1444" width="80" height="80" as="geometry" />
        </mxCell>
        <mxCell id="ApN2YI6DK6Mzw7adcPMo-167" value="LImited Access" style="rounded=1;whiteSpace=wrap;html=1;" vertex="1" parent="WIyWlLk6GJQsqaUBKTNV-1">
          <mxGeometry x="469" y="1524" width="120" height="40" as="geometry" />
        </mxCell>
        <mxCell id="ApN2YI6DK6Mzw7adcPMo-168" value="" style="endArrow=classic;html=1;rounded=0;entryX=0.5;entryY=1;entryDx=0;entryDy=0;exitX=1;exitY=0.5;exitDx=0;exitDy=0;" edge="1" source="ApN2YI6DK6Mzw7adcPMo-167" target="ApN2YI6DK6Mzw7adcPMo-166" parent="WIyWlLk6GJQsqaUBKTNV-1">
          <mxGeometry width="50" height="50" relative="1" as="geometry">
            <mxPoint x="354" y="1654" as="sourcePoint" />
            <mxPoint x="404" y="1604" as="targetPoint" />
            <Array as="points">
              <mxPoint x="629" y="1544" />
            </Array>
          </mxGeometry>
        </mxCell>
        <mxCell id="ApN2YI6DK6Mzw7adcPMo-169" value="" style="endArrow=classic;html=1;rounded=0;exitX=0;exitY=0.5;exitDx=0;exitDy=0;" edge="1" parent="WIyWlLk6GJQsqaUBKTNV-1">
          <mxGeometry width="50" height="50" relative="1" as="geometry">
            <mxPoint x="589" y="1484" as="sourcePoint" />
            <mxPoint x="389" y="1484" as="targetPoint" />
            <Array as="points">
              <mxPoint x="494" y="1484" />
            </Array>
          </mxGeometry>
        </mxCell>
        <mxCell id="ApN2YI6DK6Mzw7adcPMo-170" value="" style="endArrow=classic;html=1;rounded=0;entryX=0;entryY=0.5;entryDx=0;entryDy=0;exitX=1;exitY=0.5;exitDx=0;exitDy=0;" edge="1" parent="WIyWlLk6GJQsqaUBKTNV-1">
          <mxGeometry width="50" height="50" relative="1" as="geometry">
            <mxPoint x="423" y="1544" as="sourcePoint" />
            <mxPoint x="469" y="1544" as="targetPoint" />
          </mxGeometry>
        </mxCell>
        <mxCell id="ApN2YI6DK6Mzw7adcPMo-171" value="Log Out" style="rhombus;whiteSpace=wrap;html=1;" vertex="1" parent="WIyWlLk6GJQsqaUBKTNV-1">
          <mxGeometry x="358" y="2014" width="80" height="80" as="geometry" />
        </mxCell>
        <mxCell id="ApN2YI6DK6Mzw7adcPMo-172" value="End" style="strokeWidth=2;html=1;shape=mxgraph.flowchart.terminator;whiteSpace=wrap;" vertex="1" parent="WIyWlLk6GJQsqaUBKTNV-1">
          <mxGeometry x="349" y="2134" width="100" height="40" as="geometry" />
        </mxCell>
        <mxCell id="ApN2YI6DK6Mzw7adcPMo-173" value="" style="endArrow=classic;html=1;rounded=0;entryX=0.5;entryY=0;entryDx=0;entryDy=0;entryPerimeter=0;exitX=0.5;exitY=1;exitDx=0;exitDy=0;" edge="1" source="ApN2YI6DK6Mzw7adcPMo-171" target="ApN2YI6DK6Mzw7adcPMo-172" parent="WIyWlLk6GJQsqaUBKTNV-1">
          <mxGeometry width="50" height="50" relative="1" as="geometry">
            <mxPoint x="218" y="1984" as="sourcePoint" />
            <mxPoint x="268" y="1934" as="targetPoint" />
          </mxGeometry>
        </mxCell>
        <mxCell id="ApN2YI6DK6Mzw7adcPMo-174" value="" style="endArrow=classic;startArrow=classic;html=1;rounded=0;exitX=1;exitY=0.5;exitDx=0;exitDy=0;exitPerimeter=0;entryX=0.5;entryY=1;entryDx=0;entryDy=0;" edge="1" source="ApN2YI6DK6Mzw7adcPMo-159" target="ApN2YI6DK6Mzw7adcPMo-161" parent="WIyWlLk6GJQsqaUBKTNV-1">
          <mxGeometry width="50" height="50" relative="1" as="geometry">
            <mxPoint x="399" y="1744" as="sourcePoint" />
            <mxPoint x="219" y="1794" as="targetPoint" />
            <Array as="points">
              <mxPoint x="229" y="1874" />
            </Array>
          </mxGeometry>
        </mxCell>
        <mxCell id="ApN2YI6DK6Mzw7adcPMo-175" value="" style="endArrow=classic;startArrow=classic;html=1;rounded=0;exitX=1;exitY=0;exitDx=0;exitDy=75;exitPerimeter=0;entryX=0.442;entryY=1.1;entryDx=0;entryDy=0;entryPerimeter=0;" edge="1" source="ApN2YI6DK6Mzw7adcPMo-159" target="ApN2YI6DK6Mzw7adcPMo-164" parent="WIyWlLk6GJQsqaUBKTNV-1">
          <mxGeometry width="50" height="50" relative="1" as="geometry">
            <mxPoint x="399" y="1954" as="sourcePoint" />
            <mxPoint x="559" y="1894" as="targetPoint" />
            <Array as="points">
              <mxPoint x="429" y="1884" />
            </Array>
          </mxGeometry>
        </mxCell>
        <mxCell id="ApN2YI6DK6Mzw7adcPMo-176" value="" style="endArrow=classic;startArrow=classic;html=1;rounded=0;exitX=1;exitY=1;exitDx=0;exitDy=-15;exitPerimeter=0;entryX=0.25;entryY=1;entryDx=0;entryDy=0;" edge="1" source="ApN2YI6DK6Mzw7adcPMo-159" target="ApN2YI6DK6Mzw7adcPMo-165" parent="WIyWlLk6GJQsqaUBKTNV-1">
          <mxGeometry width="50" height="50" relative="1" as="geometry">
            <mxPoint x="399" y="1954" as="sourcePoint" />
            <mxPoint x="759" y="1924" as="targetPoint" />
            <Array as="points">
              <mxPoint x="645" y="1919" />
            </Array>
          </mxGeometry>
        </mxCell>
        <mxCell id="ApN2YI6DK6Mzw7adcPMo-177" value="" style="endArrow=classic;startArrow=classic;html=1;rounded=0;entryX=0.5;entryY=1;entryDx=0;entryDy=0;exitX=0.5;exitY=0;exitDx=0;exitDy=0;exitPerimeter=0;" edge="1" source="ApN2YI6DK6Mzw7adcPMo-159" target="ApN2YI6DK6Mzw7adcPMo-158" parent="WIyWlLk6GJQsqaUBKTNV-1">
          <mxGeometry width="50" height="50" relative="1" as="geometry">
            <mxPoint x="279" y="1914" as="sourcePoint" />
            <mxPoint x="329" y="1864" as="targetPoint" />
          </mxGeometry>
        </mxCell>
        <mxCell id="ApN2YI6DK6Mzw7adcPMo-178" value="" style="endArrow=classic;html=1;rounded=0;exitX=0.25;exitY=1;exitDx=0;exitDy=0;entryX=0;entryY=0.5;entryDx=0;entryDy=0;" edge="1" source="ApN2YI6DK6Mzw7adcPMo-158" target="ApN2YI6DK6Mzw7adcPMo-171" parent="WIyWlLk6GJQsqaUBKTNV-1">
          <mxGeometry width="50" height="50" relative="1" as="geometry">
            <mxPoint x="279" y="1904" as="sourcePoint" />
            <mxPoint x="329" y="1854" as="targetPoint" />
            <Array as="points">
              <mxPoint x="79" y="1764" />
              <mxPoint x="79" y="2054" />
            </Array>
          </mxGeometry>
        </mxCell>
        <mxCell id="ApN2YI6DK6Mzw7adcPMo-179" value="" style="endArrow=classic;html=1;rounded=0;exitX=0.75;exitY=1;exitDx=0;exitDy=0;" edge="1" source="ApN2YI6DK6Mzw7adcPMo-161" target="ApN2YI6DK6Mzw7adcPMo-171" parent="WIyWlLk6GJQsqaUBKTNV-1">
          <mxGeometry width="50" height="50" relative="1" as="geometry">
            <mxPoint x="279" y="1914" as="sourcePoint" />
            <mxPoint x="329" y="1864" as="targetPoint" />
            <Array as="points">
              <mxPoint x="279" y="1984" />
            </Array>
          </mxGeometry>
        </mxCell>
        <mxCell id="ApN2YI6DK6Mzw7adcPMo-180" value="" style="endArrow=classic;html=1;rounded=0;entryX=0.5;entryY=0;entryDx=0;entryDy=0;exitX=0.75;exitY=1;exitDx=0;exitDy=0;" edge="1" source="ApN2YI6DK6Mzw7adcPMo-164" target="ApN2YI6DK6Mzw7adcPMo-171" parent="WIyWlLk6GJQsqaUBKTNV-1">
          <mxGeometry width="50" height="50" relative="1" as="geometry">
            <mxPoint x="279" y="1914" as="sourcePoint" />
            <mxPoint x="329" y="1864" as="targetPoint" />
            <Array as="points">
              <mxPoint x="469" y="1974" />
            </Array>
          </mxGeometry>
        </mxCell>
        <mxCell id="ApN2YI6DK6Mzw7adcPMo-181" value="" style="endArrow=classic;html=1;rounded=0;entryX=1;entryY=0.5;entryDx=0;entryDy=0;exitX=0.75;exitY=1;exitDx=0;exitDy=0;" edge="1" source="ApN2YI6DK6Mzw7adcPMo-165" target="ApN2YI6DK6Mzw7adcPMo-171" parent="WIyWlLk6GJQsqaUBKTNV-1">
          <mxGeometry width="50" height="50" relative="1" as="geometry">
            <mxPoint x="279" y="1914" as="sourcePoint" />
            <mxPoint x="329" y="1864" as="targetPoint" />
            <Array as="points">
              <mxPoint x="716" y="2054" />
            </Array>
          </mxGeometry>
        </mxCell>
        <mxCell id="ApN2YI6DK6Mzw7adcPMo-182" value="Manage Doctor Profile" style="whiteSpace=wrap;html=1;rounded=1;" vertex="1" parent="WIyWlLk6GJQsqaUBKTNV-1">
          <mxGeometry x="535" y="1644" width="135" height="56" as="geometry" />
        </mxCell>
        <mxCell id="ApN2YI6DK6Mzw7adcPMo-183" value="" style="endArrow=classic;startArrow=classic;html=1;rounded=0;entryX=0.25;entryY=1;entryDx=0;entryDy=0;exitX=0.5;exitY=1;exitDx=0;exitDy=0;exitPerimeter=0;" edge="1" parent="WIyWlLk6GJQsqaUBKTNV-1" source="ApN2YI6DK6Mzw7adcPMo-159" target="ApN2YI6DK6Mzw7adcPMo-182">
          <mxGeometry width="50" height="50" relative="1" as="geometry">
            <mxPoint x="550" y="1760" as="sourcePoint" />
            <mxPoint x="600" y="1710" as="targetPoint" />
            <Array as="points">
              <mxPoint x="160" y="1980" />
              <mxPoint x="540" y="1960" />
            </Array>
          </mxGeometry>
        </mxCell>
        <mxCell id="ApN2YI6DK6Mzw7adcPMo-184" value="" style="endArrow=classic;html=1;rounded=0;exitX=0.5;exitY=1;exitDx=0;exitDy=0;entryX=1;entryY=0;entryDx=0;entryDy=0;" edge="1" parent="WIyWlLk6GJQsqaUBKTNV-1" source="ApN2YI6DK6Mzw7adcPMo-182" target="ApN2YI6DK6Mzw7adcPMo-171">
          <mxGeometry width="50" height="50" relative="1" as="geometry">
            <mxPoint x="570" y="1850" as="sourcePoint" />
            <mxPoint x="620" y="1800" as="targetPoint" />
            <Array as="points">
              <mxPoint x="570" y="1980" />
            </Array>
          </mxGeometry>
        </mxCell>
      </root>
    </mxGraphModel>
  </diagram>
</mxfile>
